<svg width="13" height="13" viewBox="0 0 13 13" fill="none" xmlns="http://www.w3.org/2000/svg">
<path d="M6.57943 0L3.13086 1.99063L4.39868 2.72578L6.57943 1.47063L8.76018 2.72578L10.0283 1.99063L6.57943 0ZM8.76051 3.76545L10.028 4.50093V5.97188L7.84726 7.22703V9.73733L6.57976 10.4728L5.31161 9.73733V7.22703L3.13086 5.97188V4.50093L4.39868 3.76545L6.57943 5.02093L8.76018 3.76545H8.76051Z" fill="#FF993F"/>
<path d="M10.0286 7.01123V8.4825L8.76074 9.21764V7.74703L10.0283 7.01156L10.0286 7.01123Z" fill="#FF993F"/>
<path d="M8.74762 10.257L10.9284 9.0018V6.4915L12.1965 5.75603V9.73728L8.74794 11.7279V10.257H8.74762ZM10.9287 3.9812L9.66054 3.24573L10.9287 2.51025L12.1962 3.24573V4.71635L10.9287 5.45183V3.9812ZM5.31172 12.2603V10.79L6.57954 11.5254L7.84769 10.79V12.2606L6.57954 12.9961L5.31204 12.2606L5.31172 12.2603ZM4.39879 9.21728L3.13097 8.48245V7.0115L4.39879 7.74698V9.2176V9.21728ZM6.57954 3.9812L5.31204 3.24573L6.57954 2.51025L7.84769 3.24573L6.57954 3.9812ZM3.49854 3.24573L2.23104 3.9812V5.45183L0.962891 4.71635V3.24573L2.23072 2.51025L3.49854 3.24573Z" fill="#FF993F"/>
<path d="M0.962891 5.75618L2.23073 6.49166V9.00196L4.4115 10.2571V11.7281L0.962891 9.73711V5.75586V5.75618Z" fill="#FF993F"/>
</svg>